<?xml version="1.0" encoding="utf-8"?>
<!-- Generator: Adobe Illustrator 25.0.1, SVG Export Plug-In . SVG Version: 6.00 Build 0)  -->
<svg version="1.1" id="Слой_1" xmlns="http://www.w3.org/2000/svg" x="0px" y="0px"
     viewBox="0 0 3200 2000" enable-background="new 0 0 3200 2000" xml:space="preserve">
<rect fill="#fff" width="3200" height="2000"/>
<g>
	<path fill="#E7F3FE" d="M600.9,1774.2c0,0-623.6-391.7-197.4-811.6S1400,113.4,1782.3,279.5s347.9,376,767.8,680
		c419.9,304,322.8,545.3,247.6,667.5c-75.2,122.2-87.7,153.6-87.7,153.6L600.9,1774.2z"/>
	<path fill="#303C60" d="M1077.2,662.4c92.3-82.2,160.2-33.2,210.7,21.6c40.3,43.7,45.9,53.4,79.1,98.7c4.9,6.7,8.7,14.2,8.9,22.5
		c0.9,50.1,26.5,261.7-1.9,334.7c-33.2,85.1-442.5,124.1-442.5,124.1L1077.2,662.4z"/>
	<g>
		<path fill="#303C60" d="M1339.3,1188.4c-2.2,0-4.1-1.7-4.2-4c-0.1-2.3,1.7-4.3,4-4.4c12.1-0.6,22-6.1,30.2-16.7
			c45.9-59.5,20.1-258-2.4-365.9c-0.5-2.3,1-4.5,3.3-5c2.3-0.5,4.5,1,5,3.3c4.9,23.6,21.3,107.2,26.5,194.4
			c5.3,89.5-3.4,149.5-25.6,178.4c-9.7,12.5-21.9,19.2-36.5,20C1339.5,1188.4,1339.4,1188.4,1339.3,1188.4z"/>
	</g>
	<path fill="#303C60" d="M1111.8,637.8c-177.5,98.1-69.3,430-294.3,548.3c-62.4,32.8-253.9,199.1-128.4,418.4
		c82.1,143.5,327.5,112.5,408.3-14.4C1178.2,1463.2,1111.8,637.8,1111.8,637.8z"/>
	<g>
		<path fill="#303C60" d="M639.5,1392.3c-0.2,0-0.4,0-0.6,0c-2.3-0.3-3.9-2.4-3.6-4.7c0.2-1.2,4-29.1,21.7-66.1
			c16.3-34.1,48-82.6,106.2-119.6c104.1-66.3,173.3-128.7,255-436.6c0.6-2.3,2.9-3.6,5.2-3c2.3,0.6,3.6,2.9,3,5.2
			c-39.5,148.8-78.7,249.4-123.2,316.5c-41.4,62.4-84,92.3-135.4,125.1c-108.2,68.8-123.9,178.7-124.1,179.8
			C643.4,1390.8,641.6,1392.3,639.5,1392.3z"/>
	</g>
	<g>
		<path fill="#303C60" d="M643.4,1306.4c-0.8,0-1.6-0.2-2.2-0.7c-2-1.2-2.6-3.8-1.3-5.8c25.7-40.7,58.5-74.2,97.4-99.3
			c146.3-94.6,170.5-149,291.3-460.4c0.8-2.2,3.3-3.2,5.5-2.4c2.2,0.8,3.2,3.3,2.4,5.5c-60.4,155.7-96.5,247-136,311.6
			c-42.4,69.5-90.3,108.6-158.6,152.8c-37.9,24.5-69.8,57-94.9,96.7C646.2,1305.7,644.8,1306.4,643.4,1306.4z"/>
	</g>
	<path fill="#F09959" d="M1105.7,844.9C1044.6,971.8,1054,1087,1054,1087s7,44.7,35.3,54.1c28.2,9.4,68.2-18.8,65.8-56.4
		c-2.3-37.6,9.4-129.3,23.5-162.2C1192.7,889.6,1105.7,844.9,1105.7,844.9z"/>
	<path fill="#6791C9" d="M782.9,1726.7c3.8,34.6-4.8,31.7,26,37.5c30.8,5.8,85.6-15.4,85.6-15.4l-61.6-114.5L782.9,1726.7z"/>
	<path fill="#F09959" d="M1061.4,1018.8c-17.3,56.3-147.2,13-192.6,26c-45.4,13-84.4,203.4-90.9,374.4s2.2,307.3,19.5,329
		c17.3,21.6,303,30.3,329,21.6c26-8.7-216.4-116.9-216.4-116.9s-15.2-199.1,4.3-300.8c19.5-101.7,194.8-235.9,194.8-235.9
		L1061.4,1018.8z"/>
	<path fill="#F09959" d="M1122,1036.2c45.4,69.3,164.5,60.6,205.6,116.9c41.1,56.3,127.7,365.7,127.7,365.7l90.9-313.8
		c0,0,73.7-12.4,49.8,39c-42.6,91.3-58.4,385.9-104.6,427.7c-51.3,46.5-102.4,8.7-131.3-72.8c-27.9-78.8-97.4-248.9-147.2-313.8
		c-49.8-64.9-103.9-168.8-103.9-168.8L1122,1036.2z"/>
	<path fill="#75A1DE" d="M925,1044.8c90.9,106,268.4,101.7,307.3,88.7c39-13,39-13,39-13s30.3-10.8,56.3,19.5
		c26,30.3,88.7,220.7,99.6,264c10.8,43.3,28.1,114.7,28.1,114.7s-46.4,55.7-46.4,112c0,56.3,19.7,56.8,19.7,56.8
		s-57.7-12.9-70.7-47.6c-13-34.6-129.9-348.4-129.9-348.4l-322.5,6.5l4.3,354.9c0,0-28.1-26-67.1,0c-39,26-51.9,86.6-45.4,95.2
		c6.5,8.7-13,8.7-13,2.2c0-6.5-36.8-164.5-10.8-424.2c26-259.7,75.7-287.8,103.9-290C905.6,1034,925,1044.8,925,1044.8z"/>
	<g>
		<path fill="#6791C9" d="M1415.3,1683c0.6,0.2,1,0.2,1,0.2S1415.9,1683.2,1415.3,1683z"/>
		<path fill="#6791C9" d="M1427.8,1526.6c-18.8,5.8-50.5,72.1-50.5,72.1s-72.1-157.3-93.8-375.1l-25.8,147.8
			c35.6,95.4,91.3,245.2,100.1,268.5c11.9,31.7,59.8,44.9,66.3,46.4c-1.8-0.6-5.8-3-9.1-12.5c-1.9-1.7-12.7-6.8-14.8-8.7
			c-17.3-15.9-10.1-53.4,1.4-95.2C1413.4,1528.1,1446.6,1520.9,1427.8,1526.6z"/>
	</g>
	<path fill="#6791C9" d="M921.1,1297.7l-35.8-163.5c-39,54.8-43.3,242.4-27.4,370.8c13,105.3,32.5,132.6,45.9,143.6
		c4,2.3,6.1,4.3,6.1,4.3l-4.3-354.9L921.1,1297.7z"/>
	<path fill="#75A1DE" d="M817.5,1132.7c66.4,178.9,33.2,215,120.5,425c48.8,117.3,142.8,205.6,142.8,205.6s75.7,19.5,171,13
		c95.2-6.5,164.9-13,164.9-13s-100-60.5-104.3-101.7c-4.3-41.1-23.1-204.2,1.4-319.7c19.2-90.1-59.9-180.3-59.9-180.3l-132-6.5
		L817.5,1132.7z"/>
	<path opacity="0.5" fill="#6791C9" d="M934.4,1406.9c-11.5-41.8,49.1,13,148.6,23.1c99.6,10.1,210.7-5.8,155.8,11.5
		c-54.8,17.3-204.9-8.7-177.5,46.2c32.3,64.5,70.4,127,125.5,164.5c36.1,24.5,122.6,47.6,39,34.6c-83.7-13-173.1-111.1-212.1-174.6
		C974.8,1448.7,936.9,1416.2,934.4,1406.9z"/>
	<path fill="#E38540" d="M1154.8,1068.2c0.9-43.2,11.4-116.9,23.7-145.7c10.1-23.6-31.7-53.2-56.2-68.1l-20.7-0.9
		c-3.2,6.9-6.1,13.7-8.9,20.5c-21.9,143.6,43.6,203,74.8,214.9c13.5,5.2,28.6,5.7,41.5,4.6
		C1189.8,1086.7,1171.1,1078.9,1154.8,1068.2z"/>
	<g>
		<path fill="#F5CE5C" d="M1115.2,1132c-7.5,0-15.3-0.9-23-2.8c-18.1-4.4-61.1-21.1-71.2-81.2c-0.2-1.3,0.7-2.5,2-2.8
			c1.3-0.2,2.5,0.7,2.8,2c9.5,57.3,50.4,73.2,67.6,77.4c26.6,6.5,54.9,0.5,65.7-14c8.7-11.6,3.5-36.3,3.4-36.5
			c-0.3-1.3,0.5-2.6,1.8-2.8c1.3-0.3,2.6,0.5,2.8,1.8c0.2,1.1,5.7,27.1-4.3,40.4C1153.9,1125.3,1135.6,1132,1115.2,1132z"/>
	</g>
	<path fill="#F09959" d="M1318.8,901.4c-14.7,77.5-48.6,140.1-106,128.3c-57.4-11.8-117.7-93.7-101.8-171
		c15.9-77.3,75.3-130.4,132.6-118.6C1301.1,751.9,1338.4,798.1,1318.8,901.4z"/>
	<path fill="#F09959" d="M1523.1,1284.2c0,0-106.1,285-111.1,314.5c-5.1,29.6,5,48.3,7.9,48.3c2.9,0,93.1-154.4,93.1-154.4
		L1523.1,1284.2z"/>
	<path fill="#F09959" d="M1527.4,1271.7c8.7-28.9-4.8-65.4-4.8-65.4l38.5,4.8L1527.4,1271.7z"/>
	<g>
		<path fill="#4381DB" d="M1569.7,1222.5h-107.4c-6.5,0-11.2-6.3-9.3-12.5l67.8-227.2c1.2-4.1,5-7,9.3-7h107.4
			c6.5,0,11.2,6.3,9.3,12.5l-67.8,227.2C1577.8,1219.7,1574,1222.5,1569.7,1222.5z"/>
		<path fill="#2E5B9A" d="M1583.1,1222.5h-107.4c-6.5,0-11.2-6.3-9.3-12.5l67.8-227.2c1.2-4.1,5-7,9.3-7h107.4
			c6.5,0,11.2,6.3,9.3,12.5l-67.8,227.2C1591.2,1219.7,1587.4,1222.5,1583.1,1222.5z"/>
		<path fill="#9CBEED" d="M1505.4,1057.8c-11.4,41.2-19.1,75.1-17.2,75.6c1.9,0.5,12.8-32.5,24.2-73.7
			c11.4-41.2,19.1-75.1,17.2-75.6C1527.7,983.6,1516.8,1016.6,1505.4,1057.8z"/>
	</g>
	<path fill="#F09959" d="M1578.4,1290c3.2-37.5,35.6-72.6,48-83.8c3.8-3.4,5.9-8.2,5.8-13.3c-0.2-18.7-1-62.8-4.9-67.9
		c-4.9-6.6-17.2-91-23-87.7c-5.7,3.3,1.6,77,1.6,77s-13.9-6.6-21.3-9.8c-7.4-3.3-37.7,30.3-37.7,30.3s-14.2,35.9,24.7,20.5
		c46.2-18.3,11.5,32.7-19.2,65.4c-25.4,26.9-3.8,32.9-3.8,32.9l20.5-0.8L1578.4,1290z"/>
	<g>
		<path fill="#F5CE5C" d="M1566.7,1319.5c-3.4,0-7.3-0.5-11.1-1.7c-10-3.1-27.4-13.2-32-45.4c-0.2-1.3,0.7-2.5,2-2.7
			c1.3-0.2,2.5,0.7,2.7,2c3.9,27.6,17.3,37.7,27.9,41.3c8.6,2.9,15.7,1.6,17.5,0.6c0.1-0.8,0.7-1.6,1.5-1.9c1.2-0.5,2.6,0.1,3.1,1.3
			c0.5,1.2,0.2,2.6-0.8,3.6C1575.9,1318.3,1571.8,1319.5,1566.7,1319.5z"/>
	</g>
	<g>
		<path fill="#F5CE5C" d="M1562.7,1310.2c-3.2,0-6.5-0.2-9.7-0.7c-18.6-2.7-31-12.1-34.1-25.8c-0.3-1.3,0.5-2.6,1.8-2.9
			c1.3-0.3,2.6,0.5,2.9,1.8c3,13.1,14.9,18.7,24.3,21c13.3,3.3,25.7,1.3,27.2-0.4c0.6-1.1,2.1-1.5,3.2-0.9c1.2,0.6,1.5,2.1,0.9,3.3
			C1577.5,1308.8,1570.5,1310.2,1562.7,1310.2z"/>
	</g>
	<g>
		<path fill="#FFFFFF" d="M1253,941.7c-1.2,0-2.4-0.1-3.5-0.3c-18.2-2.8-29.2-26.3-25-53.5c1.9-12.6,6.9-24.1,14.1-32.2
			c7.6-8.7,16.8-12.7,25.8-11.3c18.2,2.8,29.2,26.3,25,53.5C1285.4,923.4,1269.9,941.7,1253,941.7z M1260.8,852.6
			c-5.4,0-11,3-16,8.7c-6.1,7-10.4,16.9-12.1,27.9c-3.3,21.8,4.9,41.9,18,43.9c13.1,2,26.9-14.7,30.3-36.5
			c3.3-21.8-4.9-41.9-18-43.9C1262.3,852.7,1261.6,852.6,1260.8,852.6z"/>
	</g>
	<g>
		<path fill="#FFFFFF" d="M1313,941.8c-0.6,0-1.2,0-1.7-0.1c-11.9-1.8-18.4-22-14.7-46c3.7-24,15.9-41.3,27.8-39.5
			c6.1,0.9,11,6.6,13.6,15.8c2.4,8.4,2.8,19.1,1.1,30.1C1335.6,925.1,1324.3,941.8,1313,941.8z M1322.6,862.5
			c-7,0-16.6,13.5-19.7,34.2c-3.3,21.5,2.3,37.6,9.4,38.7c7.1,1,17.2-12.7,20.5-34.1c1.6-10.1,1.2-19.9-0.9-27.4
			c-1.9-6.6-5-10.7-8.4-11.3C1323.1,862.5,1322.9,862.5,1322.6,862.5z"/>
	</g>
	<g>
		<path fill="#FFFFFF" d="M1233,870c-0.4,0-0.8-0.1-1.2-0.2l-141.4-40.4c-2.2-0.6-3.5-3-2.9-5.2c0.6-2.2,3-3.5,5.2-2.9l141.4,40.4
			c2.2,0.6,3.5,3,2.9,5.2C1236.6,868.8,1234.9,870,1233,870z"/>
	</g>
	<path fill="#303C60" d="M1334,782.1c-218.8,128.9-230.9,42.3-230.9,42.3l13-123.1l129.9,7.2L1334,782.1z"/>
	<path fill="#F09959" d="M1120.1,853.1c5.1,21.8-1.9,42-15.5,45.2c-13.7,3.2-28.9-11.9-34-33.7c-5.1-21.8,1.9-42,15.5-45.2
		C1099.8,816.2,1115,831.3,1120.1,853.1z"/>
	<path fill="#F5CE5C" d="M1105.1,881.7c0,4.8-3.9,8.6-8.6,8.6c-4.8,0-8.6-3.9-8.6-8.6c0-4.8,3.9-8.6,8.6-8.6
		C1101.3,873.1,1105.1,876.9,1105.1,881.7z"/>
	<path fill="#2E5B9A" d="M2793.3,1802.5h-2189c-11.1,0-20.1-9-20.1-20.1c0-11.1,9-20.1,20.1-20.1h2189c11.1,0,20.1,9,20.1,20.1
		C2813.4,1793.6,2804.4,1802.5,2793.3,1802.5z"/>
	<path fill="#DBE5EB" d="M1123.2,1758.6c0,0-82.5,1-83.6,8.4c-1,7.3,3.1,10.4,32.4,15.7c29.2,5.2,358.3,7.3,361.4,5.2
		c3.1-2.1,99.2-25.1,99.2-25.1l-230.8-4.2H1123.2z"/>
	<path fill="#F09959" d="M1168.1,1703.6c0,0,59.2-26,76.5-14.4c17.3,11.5,67.3,64.5,67.3,64.5L1168.1,1703.6z"/>
	<path fill="#2E5B9A" d="M1308.7,1758.4c-1.1,1.4-2.8,2-3.7,1.3l-121.7-90.6c-6.6-4.9-9.7-12.3-6.5-16.3c3.2-3.9,11.1-2.5,17.3,2.8
		l115.1,98.9C1310,1755.2,1309.8,1757,1308.7,1758.4z"/>
	<path fill="#F09959" d="M989.2,1692.6c0,0,98.1,39,109.7,39c11.5,0,76-43.3,97.6-37.5c21.6,5.8,127.5,59.2,124.6,63.5
		c-2.9,4.3-33.2,14.4-122.6,11.5c-89.5-2.9-235.2-15.9-235.2-15.9L989.2,1692.6z"/>
	<path fill="#F37168" d="M2231.5,1764.1h-420.2c-2.7,0-5-2.2-5-5v-74.7c0-2.7,2.2-5,5-5h420.2c6.9,0,12.5,5.6,12.5,12.5v59.7
		C2244,1758.5,2238.4,1764.1,2231.5,1764.1z"/>
	<path fill="#F2E5DE" d="M2186.1,1693.8h-379.7c-2.7,4.4-4.2,9.6-4.2,15.1v25.9c0,5.5,1.6,10.6,4.2,15.1h379.7
		c13.5,0,24.5-11,24.5-24.5v-7C2210.6,1704.8,2199.5,1693.8,2186.1,1693.8z"/>
	<path fill="#7BCEE8" d="M2213.4,1679.5h-317.8c-1.8,0-3.4-1.5-3.4-3.4v-44.5c0-1.8,1.5-3.4,3.4-3.4h317.8c4.6,0,8.4,3.8,8.4,8.4
		v34.3C2221.8,1675.7,2218,1679.5,2213.4,1679.5z"/>
	<path fill="#F2E5DE" d="M2178.2,1637h-285.9c-2,2.7-3.2,5.8-3.2,9.1v15.6c0,3.3,1.2,6.4,3.2,9.1h285.9c10.2,0,18.5-6.7,18.5-14.8
		v-4.2C2196.6,1643.6,2188.3,1637,2178.2,1637z"/>
	<g>
		<path fill="#9EC8FF" d="M2255.6,593.4h-324.3c-10.3,0-15.7-8.5-12-18.8l49-134.7c3.8-10.3,15.3-18.8,25.6-18.8h324.3
			c10.3,0,15.7,8.5,12,18.8l-49,134.7C2277.5,584.9,2265.9,593.4,2255.6,593.4z"/>
		<path fill="#FFFFFF" d="M2244.6,579.3h-292.1c-9,0-13.6-7.3-10.4-16.3l40.6-111.6c3.3-9,13.3-16.3,22.2-16.3h292.1
			c9,0,13.6,7.3,10.4,16.3L2266.8,563C2263.6,571.9,2253.6,579.3,2244.6,579.3z"/>
		<path fill="#9EC8FF" d="M2060,585.5c-26.9,71-68.3,93-68.3,93s29.5-40.7,25.2-60.6c-4.3-19.8-20-28.2-20-28.2L2060,585.5z"/>
		<path fill="#9EC8FF" d="M2268.1,474.8h-188.3c-3.1,0-4.7-2.5-3.6-5.6l0.1-0.3c1.1-3.1,4.6-5.6,7.7-5.6h188.3
			c3.1,0,4.7,2.5,3.6,5.6l-0.1,0.3C2274.6,472.3,2271.2,474.8,2268.1,474.8z"/>
		<path fill="#9EC8FF" d="M2259.3,498.8H2071c-3.1,0-4.7-2.5-3.6-5.6l0.1-0.3c1.1-3.1,4.6-5.6,7.7-5.6h188.3c3.1,0,4.7,2.5,3.6,5.6
			l-0.1,0.3C2265.9,496.3,2262.4,498.8,2259.3,498.8z"/>
		<path fill="#9EC8FF" d="M2249.4,526h-188.3c-3.1,0-4.7-2.5-3.6-5.6l0.1-0.3c1.1-3.1,4.6-5.6,7.7-5.6h188.3c3.1,0,4.7,2.5,3.6,5.6
			l-0.1,0.3C2256,523.5,2252.5,526,2249.4,526z"/>
		<path fill="#9EC8FF" d="M2050.4,494.1c-7.5,20.5-27.1,37.1-43.8,37.1c-16.7,0-24.3-16.6-16.8-37.1c7.5-20.5,27.1-37.1,43.8-37.1
			C2050.4,457,2057.9,473.6,2050.4,494.1z"/>
	</g>
	<g>
		<path fill="#9EC8FF" d="M2071.3,943.8h-16.1c-3.4,0-5.1-2.8-3.9-6.1l4.8-13.2c1.2-3.4,5-6.1,8.4-6.1h16.1c3.4,0,5.1,2.8,3.9,6.1
			l-4.8,13.2C2078.4,941,2074.6,943.8,2071.3,943.8z"/>
		<path fill="#9EC8FF" d="M2122.8,943.8h-16.1c-3.4,0-5.1-2.8-3.9-6.1l4.8-13.2c1.2-3.4,5-6.1,8.4-6.1h16.1c3.4,0,5.1,2.8,3.9,6.1
			l-4.8,13.2C2130,941,2126.2,943.8,2122.8,943.8z"/>
		<path fill="#9EC8FF" d="M2174.4,943.8h-16.1c-3.4,0-5.1-2.8-3.9-6.1l4.8-13.2c1.2-3.4,5-6.1,8.4-6.1h16.1c3.4,0,5.1,2.8,3.9,6.1
			l-4.8,13.2C2181.6,941,2177.8,943.8,2174.4,943.8z"/>
	</g>
	<g>
		<path fill="#9EC8FF" d="M1866.9,842h-324.3c-10.3,0-15.7-8.5-12-18.8l49-134.7c3.8-10.3,15.3-18.8,25.6-18.8h324.3
			c10.3,0,15.7,8.5,12,18.8l-49,134.7C1888.8,833.5,1877.2,842,1866.9,842z"/>
		<path fill="#FFFFFF" d="M1855.9,827.9h-292.1c-9,0-13.6-7.3-10.4-16.3l40.6-111.6c3.3-9,13.3-16.3,22.2-16.3h292.1
			c9,0,13.6,7.3,10.4,16.3l-40.6,111.6C1874.9,820.5,1864.9,827.9,1855.9,827.9z"/>
		<path fill="#9EC8FF" d="M1559,834.1c-24.8,71,0.6,93,0.6,93s0.2-40.7,18.9-60.6c18.7-19.8,40.6-28.2,40.6-28.2L1559,834.1z"/>
		<path fill="#9EC8FF" d="M1776.6,732.8h-158.9c-2.8,0-4.3-2.3-3.3-5.2l0.4-1.1c1-2.8,4.2-5.2,7.1-5.2h158.9c2.8,0,4.3,2.3,3.3,5.2
			l-0.4,1.1C1782.6,730.5,1779.5,732.8,1776.6,732.8z"/>
		<path fill="#9EC8FF" d="M1767.9,756.8H1609c-2.8,0-4.3-2.3-3.3-5.2l0.4-1.1c1-2.8,4.2-5.2,7.1-5.2h158.9c2.8,0,4.3,2.3,3.3,5.2
			l-0.4,1.1C1773.9,754.5,1770.7,756.8,1767.9,756.8z"/>
		<path fill="#9EC8FF" d="M1758,784h-158.9c-2.8,0-4.3-2.3-3.3-5.2l0.4-1.1c1-2.8,4.2-5.2,7.1-5.2h158.9c2.8,0,4.3,2.3,3.3,5.2
			l-0.4,1.1C1764,781.7,1760.8,784,1758,784z"/>
		<path fill="#9EC8FF" d="M2162.3,994.5h-313c-5.6,0-8.5-2.3-6.5-5.2l0.8-1.1c2-2.8,8.3-5.2,13.9-5.2h313c5.6,0,8.5,2.3,6.5,5.2
			l-0.8,1.1C2174.2,992.1,2167.9,994.5,2162.3,994.5z"/>
		<path fill="#9EC8FF" d="M2145.1,1034.2h-313c-5.6,0-8.5-2.3-6.5-5.2l0.8-1.1c2-2.8,8.3-5.2,13.9-5.2h313c5.6,0,8.5,2.3,6.5,5.2
			l-0.8,1.1C2157,1031.8,2150.7,1034.2,2145.1,1034.2z"/>
		<path fill="#9EC8FF" d="M1831.8,793.4h-23c-10.3,0-15.7-8.5-12-18.8l17.1-47c3.8-10.3,15.3-18.8,25.6-18.8h23
			c10.3,0,15.7,8.5,12,18.8l-17.1,47C1853.7,784.9,1842.2,793.4,1831.8,793.4z"/>
	</g>
	<g>
		<path fill="#9CD499" d="M2633.5,1701.8c41.7-228.9,32.6-310.8-79.2-497.6c-111.7-186.8-122.4-534.6-164.5-432.6
			c-42.1,102-36.5,358.1,95.6,482.4c132,124.3,149.8,179.9,157.6,230.5c7.8,50.6-18.8,206.1-18.8,206.1L2633.5,1701.8z"/>
		<path fill="#74B570" d="M2654.4,1554.3c0.1-0.9,0.1-1.7,0.2-2.6c-2.4-18.8-15.7-115.4-34.1-153.5
			c-20.4-42.3-109.7-115.9-134.7-208.4s-64.8-164.1-90.9-222.5c-34.4-77.1-15.6-179.6,12.9-212.9c-0.7-0.5-1.4-0.8-2.1-1l-9.5,5.7
			c-2.1,3-4.2,7.1-6.4,12.4c-42.1,102-36.5,358.1,95.6,482.4c132,124.3,149.8,179.9,157.6,230.5c2.1,13.6,1.7,34.9,0,58.7
			L2654.4,1554.3z"/>
		<path fill="#9CD499" d="M2576.5,1661.4c31-269,20.7-362.1-39.3-577.3c-60-215.2,331.1-705.6,318.7-620.8
			c-12.4,84.8-53.8,295.9-161.4,428.3c-107.6,132.4-115.9,240-95.2,353.8c20.7,113.8-4.1,378.7-4.1,378.7l-12.4,47.6L2576.5,1661.4z
			"/>
		<g>
			<path fill="#74B570" d="M2590.8,1549.6c0,0-0.1,0-0.1,0c-1.4-0.1-2.6-1.3-2.5-2.7c0-0.8,3.1-83.8,1.6-151.8
				c-1.5-68.1-20-184.9-31.2-225c-10.2-36.5-23.1-159,39.3-285.5c31.1-63,55.9-102.8,90.3-157.9c34-54.5,76.2-122.3,143.3-241.7
				c0.7-1.3,2.3-1.7,3.5-1c1.3,0.7,1.7,2.3,1,3.5c-67.1,119.5-109.4,187.4-143.4,241.9c-34.3,55-59,94.7-90,157.5
				c-61.7,125-49.1,245.8-39,281.8c11.3,40.4,29.9,157.8,31.4,226.3c1.6,68.2-1.5,151.3-1.6,152.1
				C2593.3,1548.5,2592.2,1549.6,2590.8,1549.6z"/>
		</g>
		<path fill="#9CD499" d="M2586.9,1758.1c18.6-180,21.7-91.2-55.6-335.8c-88.5-280,227.4-528.5,279.1-427.1
			c51.7,101.4,111.7,420.1,89,409.7c-22.8-10.3-173.8-306.3-178-293.8c-4.1,12.4-204.9,115.9-196.6,221.4
			c8.3,105.5,84.8,273.1,84.8,273.1l-2.1,154.6L2586.9,1758.1z"/>
		<g>
			<path fill="#74B570" d="M2607.5,1758c-0.1,0-0.2,0-0.3,0l-20.7-2.1c-0.7-0.1-1.3-0.4-1.8-0.9c-0.4-0.5-0.6-1.2-0.6-1.9
				c2.2-20.8,4.1-38.3,5.7-52.4c8.7-76.4,8.7-76.4-15.1-141.9c-10.7-29.6-25.4-70.1-46.2-135.8c-15.5-49.1-19.5-100-11.9-151.3
				c6.7-45.2,22.2-89.8,46.1-132.5c41-73.2,105.4-136.1,164.3-160.2c40.9-16.8,72-11.3,85.4,15c22,43,48.2,131.2,70.2,235.7
				c12.7,60.3,31.4,165.4,20.8,176.5c-1.4,1.5-3.5,1.9-5.4,1c-12.4-5.6-53.5-78.2-110.3-180.1c-28.4-51.1-57.8-103.8-65.7-112.9
				c-3.2,3.5-11.3,9.1-28,20.4c-56.2,38.1-173.2,117.5-166.9,197.5c8.1,103.9,83.8,270.6,84.6,272.3c0.2,0.4,0.2,0.7,0.2,1.1
				l-2.1,149.9c0,0.7-0.3,1.4-0.9,1.9C2608.8,1757.8,2608.2,1758,2607.5,1758z M2589.7,1751l15.3,1.5l2-146.5
				c-4.8-10.6-76.8-171.7-84.8-273.5c-6.5-83.1,112.2-163.6,169.2-202.2c13.5-9.2,26.3-17.9,27.5-20.3c0.4-1.1,1.4-2,2.6-2.1
				c5-0.5,14.9,15.9,71,116.6c40.2,72.3,95.2,171,107.6,177.7c1-1.6,3.8-10-1.7-53.7c-4-31.6-11.2-73.2-20.4-117
				c-22-104.5-48.1-192.5-69.9-235.3c-12-23.6-40.8-28.1-78.8-12.5c-103.1,42.3-261.2,229.9-195.5,437.7
				c20.7,65.6,35.4,106.1,46.1,135.6c24.1,66.6,24.1,66.6,15.3,144.3C2593.6,1715.5,2591.7,1731.5,2589.7,1751z"/>
		</g>
		<path fill="#7BCEE8" d="M2651.9,1765.5H2558c-6.5,0-12.2-3.7-12.8-8.2l-31.6-237.2c-1.5-10.9,5.8-20.2,16.1-20.2h150.4
			c10.3,0,17.6,9.2,16.1,20.2l-31.6,237.2C2664.1,1761.9,2658.3,1765.5,2651.9,1765.5z"/>
		<path fill="#A2DFF2" d="M2640.8,1757.3h-13.4c-6.6,0-11.9-3.8-11.8-8.5l4.8-204.9c0.2-10.2,8.6-18.8,18.6-18.8h20.4
			c10,0,17.2,8.6,16.1,18.8l-21.8,204.9C2653.1,1753.5,2647.3,1757.3,2640.8,1757.3z"/>
		<g>
			<path fill="#74B570" d="M2540.7,1425.4l1.7-2.9c-6.1-22-11.2-43.8-14.4-64.3C2531.3,1396.8,2540.7,1425.4,2540.7,1425.4z"/>
			<path fill="#74B570" d="M2540.7,1252c-6.1,15.3-9.8,31.2-11.9,46.9c27.7-91,182.1-173.1,192.1-187l1.8-3.5
				C2664.7,1092.1,2572,1173.6,2540.7,1252z"/>
		</g>
		<g>
			<path fill="#74B570" d="M2899.5,1399.2c-1.2,0-2.2-0.8-2.5-2l-28-114.1c-21.9-89.4-49.2-200.7-79.8-250.2
				c-5-8.2-27.1-19.2-58.3-17c-42.2,3-123.5,32.1-194.1,193.7c-0.6,1.3-2.1,1.9-3.4,1.3c-1.3-0.6-1.9-2.1-1.3-3.4
				c71.7-164.1,155.1-193.8,198.5-196.8c33.7-2.4,57.2,9.9,63.1,19.5c31,50.2,57.2,157.3,80.4,251.7l28,114.1
				c0.3,1.4-0.5,2.8-1.9,3.1C2899.9,1399.2,2899.7,1399.2,2899.5,1399.2z"/>
		</g>
		<g>
			<path fill="#74B570" d="M2817.2,1250.4c-0.1,0-0.2,0-0.3,0c-1.4-0.2-2.4-1.5-2.3-2.9c0.1-0.9,10.6-94.7-14-193.4
				c-0.3-1.4,0.5-2.8,1.9-3.1c1.4-0.3,2.8,0.5,3.1,1.9c24.9,99.6,14.3,194.3,14.2,195.2C2819.6,1249.4,2818.5,1250.4,2817.2,1250.4z
				"/>
		</g>
		<g>
			<path fill="#74B570" d="M2788.2,1192.4c-0.1,0-0.2,0-0.3,0c-1.4-0.2-2.4-1.5-2.3-2.9c0.1-0.9,10.1-86.7,3.1-157.7
				c-0.1-1.4,0.9-2.7,2.3-2.8c1.4-0.2,2.7,0.9,2.8,2.3c7,71.5-3,157.9-3.1,158.8C2790.6,1191.4,2789.5,1192.4,2788.2,1192.4z"/>
		</g>
		<g>
			<path fill="#74B570" d="M2689.5,731.7c-1,0-1.9-0.5-2.3-1.5c-0.6-1.3-0.1-2.8,1.2-3.5c0.7-0.4,75-36.7,117.9-116.4
				c0.7-1.3,2.3-1.7,3.5-1.1c1.3,0.7,1.7,2.3,1.1,3.5c-43.8,81.3-119.5,118.3-120.2,118.6C2690.3,731.7,2689.9,731.7,2689.5,731.7z"
				/>
		</g>
		<g>
			<path fill="#74B570" d="M2634.7,825.8c-1.2,0-2.3-0.8-2.5-2.1c-0.3-1.4,0.6-2.8,2-3.1c0.6-0.1,61.4-13.2,133.6-71.5
				c1.1-0.9,2.8-0.7,3.7,0.4c0.9,1.1,0.7,2.8-0.4,3.7c-73.3,59.3-135.2,72.5-135.9,72.6C2635,825.7,2634.8,825.8,2634.7,825.8z"/>
		</g>
		<g>
			<path fill="#74B570" d="M2589.3,916.7c-1.1,0-1.7,0-1.9-0.1c-1.4-0.1-2.5-1.4-2.4-2.8s1.4-2.5,2.8-2.4c0.4,0,42.3,2.3,109.5-48.1
				c1.2-0.9,2.8-0.6,3.6,0.5c0.9,1.1,0.6,2.8-0.5,3.6C2638.8,913.8,2598.4,916.7,2589.3,916.7z"/>
		</g>
	</g>
</g>
</svg>
