<svg viewBox="0 0 24 24" xmlns="http://www.w3.org/2000/svg"><g fill-rule="evenodd" fill="none"><path d="M0 0h24v24H0Z"/><g fill="#888"><path d="M7.14 19.35c.52.4 1.1.74 1.72 1l-.98 1.69c-.28.47-.89.64-1.37.36 -.48-.28-.65-.89-.37-1.37l.98-1.71Zm7.99 1c.61-.27 1.19-.61 1.72-1.01l.96 1.67c.27.47.11 1.08-.37 1.36 -.48.27-1.09.11-1.37-.37l-.97-1.67Z"/><path opacity=".3" d="M12 21c-4.42 0-8-3.59-8-8 0-4.42 3.58-8 8-8 4.41 0 8 3.58 8 8 0 4.41-3.59 8-8 8Zm7.06-17.75l1.74 1.74c.58.58.58 1.53 0 2.12 -.59.58-1.54.58-2.13 0l-1.75-1.75c-.59-.59-.59-1.54 0-2.13 .58-.59 1.53-.59 2.12 0ZM5.28 2.87c.58-.59 1.53-.59 2.12 0 .58.58.58 1.53 0 2.12L5.27 7.11c-.59.58-1.54.58-2.13 0 -.59-.59-.59-1.54 0-2.13l2.12-2.13Z"/><path d="M11.96 7.5h.08c.25 0 .47.19.49.45l.45 4.54 3.24 1.85c.15.08.25.25.25.43v.2c0 .21-.18.38-.39.38 -.04 0-.07-.01-.11-.02l-4.62-1.26c-.24-.07-.39-.29-.37-.53l.43-5.63c.02-.27.23-.47.49-.47Z"/></g></g></svg>