<svg width="24" height="24" viewBox="0 0 24 24" fill="none" xmlns="http://www.w3.org/2000/svg">
<path opacity="0.3" d="M3.65754 21.2749L3.00078 3.11377C2.97882 2.51384 3.42132 2.00514 3.99823 1.96782L18.8688 1.00226C19.4557 0.963552 19.9614 1.42732 19.998 2.03693C19.9993 2.05974 20 2.08255 20 2.10536V21.8941C20 22.5044 19.5229 23 18.9347 23C18.9187 23 18.9027 22.9993 18.8868 22.9986L4.67163 22.3351C4.11801 22.3088 3.67551 21.8464 3.65488 21.2714L3.65754 21.2749Z" fill="black"/>
<path d="M16.6423 3.73112L16.7492 1.16886L18.9071 1L18.9999 3.64181C19.0027 3.73321 18.9303 3.81067 18.8375 3.81346C18.7974 3.81416 18.7587 3.8016 18.7271 3.77717L17.8946 3.12614L16.9088 3.86719C16.8343 3.92231 16.7295 3.90836 16.6733 3.83509C16.6494 3.80369 16.6374 3.76601 16.6388 3.72693L16.6423 3.73112ZM13.8818 9.37269C13.8818 9.80671 16.8308 9.59878 17.2266 9.29315C17.2266 6.33385 15.6263 4.77919 12.697 4.77919C9.7671 4.77919 8.12599 6.35757 8.12599 8.72655C8.12599 12.8511 13.7349 12.93 13.7349 15.1803C13.7349 15.8118 13.4227 16.1865 12.7371 16.1865C11.8434 16.1865 11.4905 15.7337 11.532 14.1937C11.532 13.8594 8.12459 13.7555 8.02052 14.1937C7.75544 17.924 10.0976 19 12.7779 19C15.3746 19 17.4108 17.6261 17.4108 15.1392C17.4108 10.718 11.7176 10.8359 11.7176 8.6456C11.7176 7.75733 12.382 7.6387 12.7765 7.6387C13.1914 7.6387 13.9395 7.71127 13.8776 9.3692L13.8818 9.37269Z" fill="black"/>
</svg>
