<svg width="512" height="512" viewBox="0 0 512 512" fill="none" xmlns="http://www.w3.org/2000/svg">
<path d="M400 0H112C50.144 0 0 50.144 0 112V400C0 461.856 50.144 512 112 512H400C461.856 512 512 461.856 512 400V112C512 50.144 461.856 0 400 0Z" fill="#036738"/>
<path d="M397.567 367.85C397.567 370.142 395.711 372 393.42 372C391.128 372 389.27 370.142 389.27 367.85C389.27 365.559 391.128 363.703 393.42 363.703C395.711 363.703 397.567 365.559 397.567 367.85Z" fill="white"/>
<path d="M415.882 340.704H375.103C377.308 337.062 378.056 333.035 377.793 329.813C377.569 327.034 375.383 324.777 372.444 324.863C369.688 324.942 367.423 327.174 367.421 329.808C367.418 332.25 369.267 334.273 371.699 334.684C370.781 337.857 368.716 340.2 366.222 340.704H94.1229C96.9583 349.053 105.78 354.566 124.683 354.566H368.489C365.395 359.002 364.642 361.719 365.088 365.635C365.442 368.756 367.645 370.6 370.584 370.513C373.34 370.432 375.605 368.2 375.607 365.566C375.61 363.127 373.761 361.101 371.329 360.69C372.368 357.099 374.876 354.566 377.815 354.566H405.987C408.161 354.628 411.781 354.424 414.855 356.54C417.932 358.66 419.502 363.033 416.155 365.288C412.808 367.543 413.832 369.595 414.924 370.516C416.017 371.436 419.502 370.686 422.51 369.386C425.515 368.089 431.349 362.174 431.391 354.566C431.43 347.803 425.173 340.704 415.882 340.704Z" fill="white"/>
<path d="M414.25 369.216H374.054C373.719 369.216 373.446 368.943 373.446 368.608V367.567C373.446 367.23 373.719 366.959 374.054 366.959H414.25C414.587 366.959 414.858 367.23 414.858 367.567V368.608C414.858 368.943 414.587 369.216 414.25 369.216Z" fill="white"/>
<path d="M414.033 148.199C414.083 148.623 414.528 148.881 414.932 148.746C417.292 147.965 418.171 147.916 420.972 148.704C423.866 149.523 416.982 152.356 412.872 154.069C412.658 154.158 412.699 154.468 412.928 154.505L415.953 154.975C416.15 155.005 416.345 155 416.537 154.951C417.942 154.611 423.938 152.799 427.745 146.075C428.112 145.433 427.952 144.613 427.369 144.158C424.915 142.231 421.297 141.603 419.63 141.603C417.735 141.603 417.199 141.529 415.921 142.866C414.41 144.443 413.824 146.434 414.033 148.199Z" fill="white"/>
<path d="M328.719 148.509C328.768 148.933 329.214 149.191 329.617 149.058C331.978 148.276 332.857 148.226 335.658 149.016C338.552 149.831 331.668 152.667 327.557 154.377C327.343 154.468 327.385 154.778 327.614 154.815L330.639 155.285C330.836 155.315 331.03 155.31 331.222 155.263C332.628 154.921 338.623 153.11 342.431 146.385C342.798 145.743 342.638 144.923 342.057 144.468C339.601 142.541 335.982 141.913 334.316 141.913C332.421 141.913 331.887 141.839 330.607 143.176C329.096 144.753 328.51 146.747 328.719 148.509Z" fill="white"/>
<path d="M297.386 148.509C297.436 148.933 297.881 149.191 298.285 149.058C300.645 148.276 301.521 148.226 304.322 149.016C307.217 149.831 300.335 152.667 296.225 154.377C296.011 154.468 296.052 154.778 296.281 154.815L299.306 155.285C299.501 155.315 299.698 155.31 299.89 155.263C301.293 154.921 307.291 153.11 311.098 146.385C311.463 145.743 311.305 144.923 310.722 144.468C308.268 142.541 304.65 141.913 302.981 141.913C301.088 141.913 300.552 141.839 299.274 143.176C297.763 144.753 297.177 146.747 297.386 148.509Z" fill="white"/>
<path d="M261.242 148.354C261.294 148.778 261.739 149.036 262.143 148.903C264.503 148.12 265.379 148.071 268.18 148.861C271.075 149.676 264.193 152.511 260.083 154.225C259.868 154.313 259.91 154.623 260.139 154.66L263.164 155.13C263.359 155.16 263.555 155.155 263.747 155.108C265.15 154.766 271.149 152.954 274.956 146.23C275.321 145.588 275.163 144.768 274.58 144.313C272.123 142.386 268.508 141.758 266.839 141.758C264.946 141.758 264.41 141.684 263.13 143.021C261.621 144.598 261.033 146.592 261.242 148.354Z" fill="white"/>
<path d="M66.9105 217.456C66.9622 217.879 67.4077 218.138 67.8113 218.005C70.1717 217.225 71.048 217.173 73.849 217.963C76.7435 218.78 69.8616 221.613 65.7512 223.326C65.5371 223.415 65.5789 223.725 65.8078 223.762L68.8328 224.232C69.0272 224.262 69.2241 224.257 69.4161 224.21C70.8191 223.868 76.8173 222.056 80.625 215.332C80.9893 214.689 80.8317 213.872 80.2484 213.414C77.7945 211.487 74.1763 210.86 72.5075 210.86C70.6148 210.86 70.0782 210.786 68.7983 212.122C67.2895 213.702 66.7013 215.694 66.9105 217.456Z" fill="white"/>
<path d="M424.346 187.194C428.794 189.845 429.761 198.435 428.046 208.219C428.016 208.396 428.255 208.489 428.344 208.332C433.599 199.208 433.567 186.635 424.45 178.803C424.206 178.594 423.827 178.774 423.827 179.096V186.246C423.827 186.63 424.017 186.997 424.346 187.194Z" fill="white"/>
<path d="M378.182 225.664C382.629 228.315 383.597 236.903 381.884 246.687C381.852 246.866 382.09 246.96 382.181 246.802C387.434 237.676 387.402 225.106 378.288 217.274C378.044 217.062 377.662 217.244 377.662 217.564V224.717C377.662 225.101 377.852 225.468 378.182 225.664Z" fill="white"/>
<path d="M206.465 152.428C210.913 155.081 211.88 163.669 210.164 173.452C210.132 173.632 210.374 173.726 210.465 173.568C215.717 164.441 215.683 151.872 206.568 144.04C206.325 143.828 205.946 144.01 205.946 144.33V151.483C205.946 151.867 206.135 152.233 206.465 152.428Z" fill="white"/>
<path d="M100.85 153.939C105.297 156.59 106.265 165.177 104.549 174.964C104.517 175.141 104.758 175.234 104.849 175.077C110.102 165.95 110.067 153.38 100.953 145.548C100.709 145.337 100.33 145.519 100.33 145.839V152.991C100.33 153.375 100.52 153.742 100.85 153.939Z" fill="white"/>
<path d="M371.942 202.279C368.627 205.718 363.938 200.271 374.736 184.866C375.009 184.477 374.519 184.026 374.15 184.324C360.45 195.466 360.825 210.421 366.143 211.829C368.967 212.578 371.989 207.598 372.784 202.732C372.86 202.262 372.272 201.935 371.942 202.279Z" fill="white"/>
<path d="M189.681 252.673C186.366 256.111 181.677 250.664 192.475 235.259C192.748 234.87 192.258 234.419 191.889 234.717C178.189 245.86 178.564 260.815 183.88 262.222C186.706 262.971 189.728 257.991 190.523 253.125C190.599 252.655 190.011 252.328 189.681 252.673Z" fill="white"/>
<path d="M154.979 271.984C151.664 275.425 146.975 269.978 157.773 254.573C158.046 254.184 157.556 253.731 157.187 254.031C143.487 265.174 143.861 280.126 149.18 281.534C152.003 282.282 155.026 277.305 155.821 272.437C155.897 271.967 155.309 271.642 154.979 271.984Z" fill="white"/>
<path d="M354.743 290.392C351.427 293.831 346.738 288.384 357.536 272.978C357.807 272.59 357.32 272.139 356.95 272.437C343.251 283.579 343.625 298.534 348.941 299.942C351.767 300.691 354.789 295.711 355.584 290.845C355.661 290.375 355.072 290.048 354.743 290.392Z" fill="white"/>
<path d="M286.04 238.173C283.047 240.979 278.016 238.104 288.56 223.959C288.801 223.636 288.346 223.247 288.033 223.516C277.243 232.731 275.997 244.853 280.804 245.968C284.285 246.775 285.587 242.665 286.8 238.542C286.911 238.168 286.337 237.892 286.04 238.173Z" fill="white"/>
<path d="M230.214 293.998C227.221 296.804 222.19 293.929 232.735 279.784C232.976 279.462 232.521 279.073 232.208 279.341C221.418 288.556 220.172 300.678 224.979 301.793C228.459 302.601 229.761 298.49 230.975 294.367C231.086 293.993 230.512 293.718 230.214 293.998Z" fill="white"/>
<path d="M136.066 294.601C133.073 297.407 128.042 294.535 138.587 280.387C138.828 280.065 138.375 279.676 138.06 279.944C127.27 289.162 126.024 301.281 130.831 302.396C134.311 303.204 135.613 299.093 136.827 294.97C136.935 294.596 136.364 294.321 136.066 294.601Z" fill="white"/>
<path d="M315.005 207.02C312.014 209.828 306.981 206.953 317.527 192.806C317.766 192.483 317.313 192.097 316.998 192.363C306.208 201.58 304.962 213.702 309.769 214.817C313.25 215.625 314.554 211.512 315.765 207.392C315.876 207.015 315.302 206.739 315.005 207.02Z" fill="white"/>
<path d="M346.502 239.352C343.187 242.79 338.498 237.346 349.296 221.938C349.569 221.549 349.082 221.099 348.712 221.397C335.013 232.541 335.384 247.494 340.703 248.902C343.529 249.65 346.549 244.671 347.346 239.805C347.423 239.335 346.834 239.007 346.502 239.352Z" fill="white"/>
<path d="M340.455 194.676C337.139 198.117 332.448 192.67 343.246 177.265C343.519 176.876 343.032 176.423 342.662 176.724C328.963 187.866 329.334 202.821 334.653 204.229C337.479 204.977 340.501 199.998 341.296 195.132C341.373 194.662 340.784 194.334 340.455 194.676Z" fill="white"/>
<path d="M73.3591 147.591C74.543 147.805 75.7417 147.906 76.9404 147.887C76.1158 146.833 75.055 146.043 73.9105 145.415C73.7209 146.137 73.5388 146.863 73.3591 147.591ZM70.1348 144.62C69.7188 145.438 68.754 146.491 69.5219 147.402C70.5065 147.589 71.5033 147.591 72.4952 147.623C72.414 146.112 71.5845 144.894 70.1348 144.62ZM67.4273 143.941C67.5726 142.292 67.9984 139.535 70.2086 140.067C74.6243 141.271 80.5733 145.029 78.4024 150.71C76.2512 152.617 72.6355 149.742 71.1932 152.63C69.6844 154.914 67.356 156.395 65.7536 158.601C66.3985 159.253 67.1123 159.945 68.0476 160.048C74.1394 160.37 80.1573 157.597 84.0757 152.738C81.7424 160.196 73.3493 164.232 66.2385 163.388C63.9396 163.314 63.8658 160.454 64.6633 158.8C65.5641 155.421 68.658 153.686 70.6566 151.133C66.8809 152.108 66.9375 147.557 68.2519 145.152C67.9762 144.746 67.703 144.342 67.4273 143.941Z" fill="white"/>
<path d="M188.232 146.572C188.104 147.311 187.981 148.049 187.85 148.785C188.623 149.231 189.42 150.062 190.388 149.656C189.923 148.465 189.15 147.449 188.232 146.572ZM184.18 146.681C184.407 147.926 185.923 147.756 186.824 148.239C186.952 147.389 187.218 146.526 187.003 145.669C185.95 145.484 184.889 145.9 184.18 146.681ZM185.593 141.234C187.311 140.692 188.141 142.393 189.219 143.328C191.648 145.743 193.24 150.269 190.198 152.859C188.793 152.989 187.572 152.339 186.427 151.613C183.498 155.694 179.297 158.926 174.539 160.58C171.541 161.505 168.785 163.366 165.674 163.76C170.965 160.609 176.57 157.978 181.569 154.36C182.974 153.533 184.399 152.465 185.207 151.042C184.431 150.759 183.543 150.574 182.94 149.986C182.292 147.988 183.425 145.972 184.892 144.67C184.392 143.505 185.229 142.324 185.593 141.234Z" fill="white"/>
<path d="M238.797 150.668C239.592 153.73 241.416 157.727 239.1 160.71C238.512 161.244 237.749 161.426 237 161.503C235.772 161.18 235.125 159.913 234.874 158.694C235.024 161.478 231.285 164.385 229.685 161.274C229.565 160.981 229.451 160.686 229.348 160.393C229.043 158.468 229.798 156.511 229.104 154.645C228.905 154.141 229.301 153.703 229.469 153.26C229.798 152.782 229.781 152.073 230.163 151.67C231.689 152.435 230.335 156.954 230.475 158.182C230.992 160.154 234.283 159.583 234.315 157.616C234.824 155.044 232.287 152.46 234.655 150.921C235.883 152.361 235.649 154.34 235.826 156.117C235.937 157.739 237.881 159.315 239.193 158.013C238.354 153.43 236.565 153.432 238.797 150.668Z" fill="white"/>
<path d="M310.249 171.693C311.177 175.089 313.309 179.527 310.599 182.837C309.912 183.428 309.021 183.632 308.145 183.716C306.71 183.357 305.954 181.951 305.661 180.6C305.839 183.687 301.467 186.916 299.597 183.463C299.459 183.138 299.323 182.808 299.203 182.485C298.846 180.349 299.73 178.176 298.917 176.108C298.686 175.549 299.149 175.062 299.343 174.57C299.73 174.038 299.707 173.253 300.155 172.808C301.94 173.654 300.357 178.67 300.522 180.034C301.125 182.22 304.97 181.585 305.009 179.404C305.602 176.551 302.636 173.684 305.405 171.976C306.84 173.573 306.567 175.769 306.774 177.74C306.904 179.539 309.176 181.287 310.71 179.842C309.73 174.759 307.635 174.762 310.249 171.693Z" fill="white"/>
<path d="M244.502 219.536C245.43 222.932 247.564 227.368 244.854 230.678C244.168 231.271 243.274 231.473 242.4 231.559C240.965 231.2 240.21 229.792 239.917 228.441C240.092 231.53 235.723 234.757 233.852 231.303C233.712 230.978 233.579 230.651 233.456 230.326C233.099 228.19 233.985 226.016 233.173 223.949C232.939 223.39 233.404 222.903 233.599 222.411C233.983 221.881 233.963 221.096 234.411 220.648C236.193 221.497 234.613 226.511 234.775 227.875C235.378 230.06 239.223 229.428 239.265 227.245C239.858 224.392 236.892 221.525 239.658 219.816C241.096 221.414 240.823 223.609 241.029 225.583C241.157 227.38 243.432 229.13 244.963 227.685C243.985 222.6 241.891 222.603 244.502 219.536Z" fill="white"/>
<path d="M85.0677 206.643C86.3032 208.539 88.4938 209.011 90.3546 209.892C90.0568 208.068 90.0075 205.777 88.4348 204.615C86.9506 204.044 85.779 205.467 85.0677 206.643ZM83.5663 209.508C83.6179 205.489 84.7108 200.355 88.9492 199.262C92.299 201.782 91.9101 206.786 91.6 210.606C94.4428 211.632 95.5111 214.618 94.529 217.547C93.0325 217.119 91.7428 216.169 90.3841 215.423C86.4682 224.456 78.1243 229.534 70.8511 235.091C69.1134 236.246 67.735 238.19 65.5814 238.458C72.7167 229.883 82.6113 224.087 89.1018 214.78C86.9826 213.476 83.8296 212.59 83.5663 209.508Z" fill="white"/>
<path d="M261.66 192.791C262.652 194.315 264.412 194.691 265.906 195.4C265.667 193.936 265.628 192.094 264.363 191.159C263.172 190.701 262.229 191.846 261.66 192.791ZM260.452 195.092C260.494 191.863 261.372 187.735 264.779 186.859C267.469 188.885 267.156 192.904 266.908 195.974C269.192 196.798 270.048 199.198 269.261 201.551C268.057 201.206 267.023 200.443 265.931 199.843C262.783 207.101 256.08 211.182 250.237 215.647C248.839 216.575 247.732 218.135 246.001 218.352C251.736 211.465 259.684 206.806 264.899 199.328C263.196 198.28 260.666 197.568 260.452 195.092Z" fill="white"/>
<path d="M102.479 232.413C104.596 232.153 106.23 234.225 106.971 235.97C106.961 237.72 106.346 239.475 105.477 240.984C104.367 239.517 102.356 236.512 100.476 238.741C97.1995 244.914 98.0142 252.338 95.4864 258.779C93.1728 254.733 92.8011 249.352 89.5399 245.613C89.0895 245.68 88.6366 245.751 88.1935 245.818C86.6798 244.715 84.9963 243.886 83.4383 242.857C83.2709 240.715 82.6949 236.16 86.2048 237.06C91.9421 239.059 93.1408 245.847 95.8704 250.482C96.7811 246.101 97.2217 241.606 98.5902 237.334C99.3532 235.392 100.313 233.1 102.479 232.413Z" fill="white"/>
<path d="M284.814 282.189C285.808 282.802 286.847 283.272 287.903 283.68C287.162 282.208 286.116 280.983 284.814 282.189ZM280.955 286.403C283.3 283.84 284.199 277.909 287.785 278.002C289.98 280.015 290.738 284.938 288.688 287.614C286.65 287.97 284.856 286.319 283.263 284.837C280.972 290.715 276.219 293.432 271.882 295.773C268.087 298 263.925 298.483 259.932 299.775C266.868 295.162 274.644 292.647 280.955 286.403Z" fill="white"/>
<path d="M351.166 163.226C350.866 163.221 350.635 163.484 350.677 163.782C351.846 171.976 365.415 267.231 365.875 273.232C366.345 279.334 366.663 289.698 364.014 296.772C363.889 297.109 363.522 297.291 363.173 297.205L363.05 297.173C362.727 297.095 362.503 296.807 362.508 296.474C362.552 293.727 362.671 281.63 361.533 275.807C360.246 269.21 345.294 156.838 344.001 155.177L343.226 154.458L345.131 144.256C345.203 143.872 345.537 143.597 345.929 143.597C346.256 143.597 346.551 143.793 346.677 144.099L354.509 163.307L354.361 166.627L352.22 163.447C352.131 163.314 351.979 163.233 351.819 163.231" fill="white"/>
<path d="M317.978 143.547L325.965 163.014V165.938L323.302 162.925C323.142 162.746 322.896 162.667 322.662 162.719C322.403 162.775 322.233 163.021 322.27 163.285L332.775 237.506C332.775 237.506 333.295 246.283 332.578 255.493C332.118 261.437 330.496 268.393 327.235 273.564C325.741 275.935 324.527 277.355 323.324 278.689C320.779 281.507 317.769 284.534 313.466 286.902C308.807 289.469 302.016 291.31 290.861 293.038C290.549 293.088 290.258 292.844 290.258 292.526V292.329C290.258 292.123 290.377 291.938 290.566 291.857C293.406 290.616 315.293 280.697 326.093 264.795C329.91 258.228 330.235 255.988 329.955 252.65C329.361 245.574 328.761 243.957 327.744 235.825L316.053 155.645L314.911 154.628L316.737 143.67C316.782 143.395 317.02 143.193 317.301 143.193H317.449C317.68 143.193 317.889 143.333 317.978 143.547Z" fill="white"/>
<path d="M270.651 175.833C270.637 175.995 270.681 176.155 270.782 176.285C272.283 178.25 284.452 194.137 288.238 199.08C292.277 204.352 306.634 221.625 309.1 224.655C311.569 227.683 317.175 233.853 319.307 237.329C321.438 240.807 323.233 243.947 323.907 246.527C324.535 248.934 324.87 256.608 324.729 259.813C324.714 260.162 324.424 260.436 324.075 260.436C323.73 260.436 323.444 260.175 323.42 259.83C323.262 257.632 321.214 248.769 315.381 242.04C312.208 238.38 298.558 221.963 296.65 219.607C294.743 217.252 281.171 200.987 278.816 197.847C276.46 194.706 262.664 174.629 262.103 173.731C261.705 173.093 261.19 171.998 260.929 171.422C260.823 171.188 260.59 171.04 260.334 171.04H259.861L260.476 160.191C260.508 159.856 260.791 159.598 261.129 159.598H261.392C261.559 159.598 261.724 159.664 261.845 159.782L276.29 173.681C276.401 173.787 276.47 173.925 276.487 174.078L276.684 175.751L271.429 174.956C271.055 174.9 270.711 175.17 270.676 175.547" fill="white"/>
<path d="M433.446 143.951L441.43 163.418V166.339L438.767 163.329C438.607 163.149 438.364 163.071 438.127 163.12C437.871 163.179 437.699 163.425 437.736 163.686L448.241 237.91C448.241 237.91 448.763 246.687 448.046 255.897C447.584 261.841 445.962 268.797 442.703 273.965C441.206 276.338 439.995 277.758 438.792 279.092C436.244 281.911 433.234 284.938 428.934 287.306C424.273 289.871 417.484 291.712 406.329 293.442C406.014 293.491 405.726 293.248 405.726 292.93V292.731C405.726 292.524 405.845 292.342 406.032 292.258C408.875 291.018 430.758 281.101 441.558 265.198C445.376 258.631 445.701 256.389 445.42 253.054C444.827 245.975 444.229 244.361 443.21 236.226L431.521 156.048L430.377 155.032L432.203 144.074C432.25 143.798 432.488 143.597 432.767 143.597H432.917C433.148 143.597 433.357 143.734 433.446 143.951Z" fill="white"/>
<path d="M362.004 143.732L376.533 157.592C376.641 157.695 376.703 157.838 376.703 157.988V158.424C376.703 158.724 376.456 158.968 376.156 158.968H370.973V159.575C370.973 159.575 383.471 175.98 387.116 180.406C390.762 184.831 403.954 200.456 407.425 204.534C410.898 208.612 427.706 228.438 430.079 231.18C434.585 236.384 438.405 241.762 439.651 247.125C440.473 250.664 440.234 260.95 440.234 260.95C440.131 261.464 439.575 261.11 439.38 260.682C439.38 260.682 439.338 259.431 438.932 257.13C438.634 255.451 438.3 253.266 437.588 251.659C435.902 247.853 435.412 246.549 431.228 241.875C427.369 237.565 406.691 213.715 404.476 211.391C402.399 209.213 382.506 184.676 379.476 180.918C374.736 175.035 364.315 159.868 360.82 154.109L360.217 153.449L360.866 144.059C360.884 143.798 361.103 143.597 361.364 143.597H361.661C361.789 143.597 361.912 143.646 362.004 143.732Z" fill="white"/>
<path d="M405.362 143.813L413.499 163.167C413.558 163.307 413.588 163.457 413.588 163.61C413.588 164.678 412.251 165.16 411.57 164.338L410.452 162.994H409.812L420.305 239.96C420.305 239.96 420.945 245.333 421.009 247.445C421.053 248.865 421.208 252.116 420.977 255.651C420.674 260.241 419.776 265.06 418.914 266.929C418.882 266.995 418.845 267.052 418.796 267.108C418.698 267.229 418.506 267.441 418.284 267.615L417.804 267.876C417.583 267.997 417.317 267.829 417.327 267.578L417.359 266.85C417.359 266.83 417.361 266.813 417.361 266.793C417.354 266.18 417.258 255.966 417.147 254.403C416.997 252.313 403.984 161.82 403.196 156.344C403.172 156.171 403.108 156.011 403.007 155.866L402.719 155.445C402.549 155.199 402.482 154.896 402.534 154.604L404.388 143.892C404.417 143.72 404.565 143.597 404.739 143.597H405.035C405.178 143.597 405.306 143.683 405.362 143.813Z" fill="white"/>
<path d="M416.657 277.409L414.947 281.561C413.905 281.724 412.992 281.97 412.207 282.295L410.876 282.959L409.748 283.464C409.443 283.594 408.235 284.65 406.118 286.631L405.37 287.178L404.757 287.705C404.671 287.163 404.907 286.351 405.463 285.273C405.936 284.443 406.689 283.577 407.72 282.674L408.195 282.297C406.499 282.329 405.537 282.312 405.311 282.248C404.031 282.063 403.322 281.554 403.191 280.717C402.896 278.849 403.285 276.855 404.358 274.736C405.653 272.247 407.55 270.805 410.056 270.409C410.615 270.323 411.228 270.478 411.892 270.877C412.591 271.388 412.997 271.989 413.106 272.676L411.661 275.878L410.634 275.258C410.184 275.044 409.731 274.896 409.278 274.817C408.825 274.738 408.468 274.701 408.205 274.709C407.858 274.763 407.585 274.849 407.388 274.965C407.184 275.046 406.905 275.25 406.556 275.575C405.928 276.008 405.658 276.506 405.746 277.062C405.845 277.687 406.881 278.027 408.852 278.086L412.266 277.95L414.361 277.697" fill="white"/>
<path d="M386.526 143.597L394.838 163.344V166.443L391.953 163.041C391.914 162.994 391.854 162.967 391.793 162.967H391.133C391.133 162.967 402.241 242.222 402.391 245.092C402.475 246.689 402.623 249.719 402.571 252.69C402.527 255.063 402.318 259.22 402.318 259.22C402.391 263.451 398.766 273.727 394.611 278.334C390.456 282.944 385.999 282.036 384.335 282.036C382.674 282.036 375.723 280.828 372.55 275.012C369.375 269.193 367.217 261.664 366.732 260.657C366.244 259.648 364.691 256.803 361.972 256.726C359.252 256.653 355.562 258.048 353.209 260.807C350.903 263.507 347.009 270.33 344.142 278.334C342.559 282.747 340.558 290.493 337.639 296.403C336.507 298.699 333.241 305.365 329.337 305.377C326.317 305.387 323.272 302.14 320.577 297.685C319.258 295.505 316.708 287.313 316.036 279.513C315.258 270.517 316.474 261.903 316.715 261.336L318.064 260.31C318.14 260.615 316.772 268.117 317.532 275.669C318.298 283.274 322.172 290.508 323.969 292.086C325.608 293.526 327.85 295.135 329.947 294.298C332.066 293.452 334.013 290.166 334.698 288.76C336.059 285.967 344.878 263.328 346.332 260.731C350.544 253.214 353.431 249.749 356.682 248.114C361.122 245.884 364.012 245.997 365.297 246.603C366.582 247.208 368.696 248.946 371.342 255.594C373.985 262.242 374.514 264.433 376.479 267.455C377.411 268.89 379.944 270.692 383.021 271.29C386.422 271.95 390.415 271.302 392.042 270.628C395.14 269.343 397.255 265.341 398.463 262.848C398.463 262.848 398.539 261.034 398.539 259.673C398.539 258.314 398.463 255.897 398.16 254.083C397.86 252.269 384.638 155.714 384.638 155.714L383.73 155.184L385.77 143.597C386.043 143.456 386.294 143.464 386.526 143.597Z" fill="white"/>
<path d="M247.382 279.787C248.128 271.836 249.664 270.104 253.403 266.207C256.447 263.035 261.156 261.09 261.943 260.775C262.731 260.46 261.274 260.581 261.274 260.581L235.615 261.484C235.339 269.277 244.153 281.556 247.382 279.787ZM268.975 225.325C267.875 223.981 262.251 221.657 259.317 223.368C260.371 225.194 260.9 226.076 261.805 228.547C261.805 228.547 266.041 226.425 268.975 225.325ZM256.494 225.207L256.415 221.305C256.388 220.08 256.743 218.856 257.496 217.889C257.51 217.872 257.525 217.852 257.54 217.835C259.096 215.871 261.537 214.82 264.043 214.805L264.114 214.803C266.662 214.79 269.153 215.526 271.301 216.892C272.913 217.919 274.85 219.309 276.372 220.877C277.395 221.933 277.649 223.526 277.041 224.867C275.793 227.624 274.11 230.459 274.11 230.459C272.276 230.703 264.085 234.981 264.085 234.981C264.085 234.981 265.552 238.527 261.274 241.092C261.641 238.648 260.174 236.204 260.174 236.204C253.107 240.541 248.881 243.455 243.321 251.004C243.156 251.228 243.092 251.516 243.146 251.791C243.237 252.252 243.648 252.584 244.118 252.586C276.31 252.655 286.82 251.294 289.921 250.679C290.349 250.595 290.669 251.063 290.436 251.43C289.116 253.512 286.224 258.063 285.476 259.185C275.21 259.919 253.695 270.918 250.762 274.952C251.739 278.13 257.363 283.144 262.251 284.244V293.41C249.171 293.289 242.327 286.444 238.049 281.797C233.771 277.153 230.837 263.83 230.837 263.83C230.837 265.417 230.714 270.552 227.047 275.565C223.379 280.577 216.291 288.765 208.589 293.166C200.888 297.567 195.753 296.834 193.186 294.023C190.619 291.21 189.539 285.827 189.886 280.697C190.41 272.974 195.633 260.406 195.633 260.406L196.243 261.506C196.12 262.973 192.209 273.486 192.332 278.743C192.453 283.998 194.166 287.545 201.865 285.588C209.566 283.631 231.098 264.531 229.86 260.285C228.619 256.04 223.778 233.939 218.978 226.179L219.102 212.979C221.669 214.812 225.946 222.881 227.903 229.236C229.86 235.593 234.731 258.639 234.731 258.639L235.063 260.266L235.464 258.639L236.338 253.317C237.559 250.14 240.739 245.739 242.693 243.539C244.65 241.338 251.276 235.037 258.244 230.393C258.244 230.393 257.562 228.906 256.701 226.388C256.57 226.009 256.501 225.61 256.494 225.207Z" fill="white"/>
<path d="M203.676 215.086L215.301 227.823L215.402 230.855L210.248 227.823L210.349 230.247C210.349 230.247 213.684 238.134 215.099 241.166C216.716 245.815 215.907 250.669 215.707 252.993C213.076 262.496 203.273 269.471 194.173 277.456C186.996 282.915 181.234 287.97 171.733 291.81C155.457 294.641 143.832 294.338 142.215 294.439L143.426 293.225C143.426 293.225 169.306 284.128 176.585 279.176C186.794 272.806 209.035 256.734 214.088 250.162C209.237 245.714 202.869 226.002 202.869 226.002L201.757 225.093L202.869 214.985" fill="white"/>
<path d="M124.597 224.092C116.25 210.712 113.048 221.347 112.935 223.863L124.597 224.092ZM194.688 217.23C194.114 223.176 191.143 229.578 186.454 232.896C185.081 233.351 177.308 235.525 175.022 225.805C173.648 228.207 171.591 237.124 162.215 238.04C153.972 238.845 151.915 227.631 151.538 224.909C151.486 224.535 151.258 224.215 150.92 224.047C150.551 223.863 150.116 223.895 149.773 224.124C143.918 228.045 133.401 232.551 133.401 232.551L133.516 246.386C131.685 258.048 123.226 266.626 107.446 275.543C100.776 279.314 90.2069 280.143 84.2062 274.999C80.5683 271.878 77.3686 267.362 76.4604 259.879C76.2389 255.909 76.325 249.746 77.1471 244.442C78.0283 238.746 79.6626 234.038 79.6626 234.038L81.7202 232.093C81.7202 232.093 77.4892 244.786 79.318 253.591C81.1468 262.395 88.4667 266.855 91.2111 267.539C93.953 268.226 98.6418 268.226 102.415 267.197C106.036 266.21 119.979 259.85 129.487 245.39C130.282 244.179 130.642 242.729 130.523 241.286C130.282 238.37 129.792 237.535 127.912 234.154C116.833 234.444 112.529 235.81 110.291 230.735C109.521 228.987 109.258 227.058 109.413 225.153C109.843 219.866 111.596 207.126 118.537 207.397C127.166 207.734 130.87 219.327 131.643 222.206C131.747 222.598 132.079 222.888 132.483 222.93C132.488 222.93 132.492 222.93 132.495 222.932C133.393 223.023 134.297 222.814 135.072 222.354C141.287 218.674 149.963 214.623 152.038 213.668C152.338 213.528 152.668 213.474 152.998 213.508L154.071 213.621C155.036 213.72 155.762 214.547 155.727 215.514C155.653 217.687 155.685 220.808 156.382 223.863C162.671 234.725 173.19 221.689 176.279 211.741C177.421 210.712 177.421 211.741 177.421 211.741C178.45 228.549 188.17 225.121 190.686 220.432C189.886 217.458 187.941 214.943 187.941 214.943L191.714 206.026C191.714 206.026 195.259 209.683 194.688 217.23Z" fill="white"/>
<path d="M126.679 143.146L134.621 161.579V164.4C134.621 164.52 134.484 164.589 134.385 164.518L131.55 162.423C131.36 162.283 131.097 162.436 131.129 162.667C132.094 169.652 140.89 233.331 141.626 241.274C142.404 249.68 141.939 257.15 140.849 261.664C136.49 273.338 131.51 278.32 125.128 283.766C118.746 289.216 113.142 292.64 105.359 295.441C97.5761 298.244 82.7909 297.776 75.9411 288.903C69.0912 280.033 64.7347 266.801 74.3855 236.915L75.9411 235.67C75.9411 235.67 70.6935 254.078 72.9826 268.201C75.786 285.48 93.382 285.982 95.5529 285.79C100.845 285.324 120.302 283.924 139.136 256.527C135.402 229.132 126.228 164.601 125.751 160.801L123.506 153.082C123.346 152.534 123.351 151.95 123.526 151.404L126.137 143.173C126.219 142.917 126.573 142.9 126.679 143.146Z" fill="white"/>
<path d="M284.477 144.195L292.149 162.561V165.288L288.991 161.887C288.851 161.737 288.656 161.653 288.452 161.653C288.004 161.653 287.659 162.044 287.723 162.487C289.01 171.355 300.106 247.999 300.719 254.115C300.719 254.115 301.499 263.593 301.238 266.842C301.027 269.503 299.503 274.694 298.962 276.481C298.848 276.85 298.509 277.101 298.122 277.101C297.625 277.101 297.229 276.695 297.244 276.2C297.337 273.121 297.569 262.956 296.692 258.142C295.654 252.426 282.018 155.807 282.018 155.807L280.721 152.691L282.623 144.355C282.727 143.912 283.121 143.597 283.576 143.597C283.97 143.597 284.324 143.833 284.477 144.195Z" fill="white"/>
<path d="M244.392 141.721L251.554 153.658V156.578L248.453 154.116L247.862 154.845C247.862 154.845 255.02 172.992 255.933 177.917C255.933 177.917 256.496 183.042 256.066 185.899C255.635 188.757 250.855 198.496 244.788 199.789C238.721 201.081 234.61 199.594 232.575 198.341C230.539 197.089 225.607 190.354 224.824 184.403C224.824 184.403 223.414 196.421 217.189 200.768C210.964 205.112 203.878 204.839 198.084 198.457C192.29 192.077 193.231 184.403 193.231 183.347C193.231 182.532 194.09 175.727 194.486 172.643C194.614 171.631 196.034 162.411 196.034 162.411C195.985 162.093 195.571 161.717 194.131 163.656C194.131 163.656 191.468 169.332 190.764 172.62C190.06 175.909 188.886 181.272 188.456 184.679C188.025 188.083 186.811 195.639 185.44 198.693C184.069 201.745 178.394 206.523 174.556 199.045C170.722 191.568 170.574 182.313 170.419 178.085C170.261 173.856 170.953 168.005 170.953 168.005L172.034 166.531C172.095 166.447 172.228 166.494 172.226 166.598C172.186 168.313 172.031 176.258 172.482 180.295C172.991 184.836 174.896 189.515 175.77 190.982C177.308 193.559 181.448 193.643 183.132 191.334C184.815 189.023 187.045 177.553 187.907 173.991C188.768 170.427 193.701 152.733 199.182 152.342C199.45 152.329 199.92 152.364 200.004 152.42C200.085 152.477 200.317 152.694 200.317 153.164C200.317 153.634 198.242 174.617 198.006 177.71C197.772 180.802 197.85 182.798 199.258 186.753C200.669 190.706 204.378 192.181 205.641 192.624C208.515 193.638 211.575 193.387 214.538 192.102C216.308 191.336 218.208 189.259 219.889 187.066C221.573 184.873 222.826 181.663 223.062 179.667C223.278 177.821 219.818 158.064 219.168 153.681C219.097 153.203 219.111 152.716 219.217 152.246C219.818 149.595 220.596 147.2 221.541 145.051C221.654 144.793 221.912 144.63 222.195 144.63C222.464 144.63 222.707 144.778 222.828 145.017C223.35 146.046 224.74 148.903 225.215 150.894C225.801 153.361 227.837 174.929 228.425 177.395C229.011 179.862 230.694 185.343 234.923 188.944C239.151 192.547 249.526 190.157 252.578 185.774C252.578 185.774 253.284 184.482 253.243 183.347C253.243 183.347 250.19 176.928 247.724 170.312C245.258 163.696 242.871 153.321 242.595 150.582L241.812 149.954L242.986 142.002C243.04 141.63 243.358 141.354 243.734 141.352C244.003 141.349 244.254 141.49 244.392 141.721Z" fill="white"/>
<path d="M155.11 143.245L162.782 161.611V164.338L159.621 160.937C159.483 160.786 159.289 160.703 159.085 160.703C158.637 160.703 158.292 161.094 158.356 161.537C159.641 170.405 170.739 247.048 171.352 253.165C171.352 253.165 172.132 262.646 171.871 265.892C171.659 268.553 170.136 273.744 169.594 275.531C169.481 275.9 169.142 276.151 168.755 276.151C168.258 276.151 167.862 275.745 167.876 275.25C167.97 272.171 168.201 262.006 167.325 257.192C166.286 251.476 152.651 154.86 152.651 154.86L151.354 151.741L153.256 143.405C153.36 142.962 153.753 142.646 154.209 142.646C154.603 142.646 154.957 142.883 155.11 143.245Z" fill="white"/>
<path d="M137.996 141.834L145.158 153.772V156.691L142.057 154.227L141.466 154.958C141.466 154.958 148.624 173.105 149.537 178.028C149.537 178.028 150.103 183.152 149.67 186.01C149.242 188.868 144.462 198.61 138.392 199.902C132.325 201.194 128.215 199.705 126.177 198.452C124.144 197.199 119.209 190.468 118.428 184.516C118.428 184.516 117.018 196.535 110.793 200.879C104.569 205.226 97.485 204.952 91.6886 198.57C85.8947 192.188 86.8349 184.516 86.8349 183.46C86.8349 182.645 87.6939 175.84 88.0902 172.753C88.2181 171.742 89.6383 162.524 89.6383 162.524C89.5891 162.207 89.1731 161.83 87.7357 163.767C87.7357 163.767 85.075 169.443 84.3686 172.734C83.6647 176.022 82.4906 181.385 82.0599 184.789C81.6292 188.196 80.4157 195.752 79.0448 198.804C77.6738 201.859 71.998 206.634 68.1608 199.156C64.3261 191.681 64.1784 182.424 64.0233 178.198C63.8658 173.969 64.5574 168.119 64.5574 168.119L65.638 166.644C65.702 166.561 65.8324 166.607 65.8299 166.711C65.7906 168.426 65.6355 176.369 66.0859 180.406C66.5954 184.947 68.5029 189.628 69.3767 191.093C70.9126 193.672 75.0525 193.756 76.7361 191.445C78.4196 189.136 80.6496 177.666 81.511 174.102C82.3725 170.541 87.305 152.846 92.7864 152.455C93.0546 152.44 93.5272 152.475 93.6084 152.534C93.6897 152.59 93.921 152.807 93.921 153.277C93.921 153.747 91.8461 174.73 91.6123 177.821C91.376 180.915 91.4548 182.911 92.8651 186.864C94.273 190.82 97.9847 192.294 99.2449 192.737C102.12 193.751 105.179 193.5 108.143 192.215C109.915 191.447 111.812 189.37 113.493 187.179C115.177 184.986 116.43 181.777 116.666 179.78C116.883 177.934 113.422 158.177 112.772 153.794C112.701 153.316 112.716 152.827 112.822 152.356C113.422 149.706 114.2 147.313 115.145 145.164C115.261 144.906 115.517 144.741 115.8 144.741C116.068 144.741 116.312 144.889 116.432 145.13C116.952 146.159 118.345 149.016 118.82 151.005C119.406 153.471 121.441 175.042 122.029 177.509C122.615 179.975 124.299 185.456 128.527 189.057C132.756 192.658 143.13 190.271 146.182 185.887C146.182 185.887 146.889 184.595 146.849 183.46C146.849 183.46 143.795 177.039 141.329 170.423C138.862 163.806 136.475 153.432 136.199 150.693L135.416 150.065L136.591 142.112C136.645 141.743 136.962 141.468 137.339 141.465C137.607 141.463 137.858 141.603 137.996 141.834Z" fill="white"/>
</svg>
